<?xml version="1.0" encoding="utf-8" standalone="no"?>
<!DOCTYPE svg PUBLIC "-//W3C//DTD SVG 1.1//EN"
  "http://www.w3.org/Graphics/SVG/1.1/DTD/svg11.dtd">
<svg xmlns:xlink="http://www.w3.org/1999/xlink" width="375.59952pt" height="231.59952pt" viewBox="0 0 375.59952 231.59952" xmlns="http://www.w3.org/2000/svg" version="1.1">
 <metadata>
  <rdf:RDF xmlns:dc="http://purl.org/dc/elements/1.1/" xmlns:cc="http://creativecommons.org/ns#" xmlns:rdf="http://www.w3.org/1999/02/22-rdf-syntax-ns#">
   <cc:Work>
    <dc:type rdf:resource="http://purl.org/dc/dcmitype/StillImage"/>
    <dc:date>2026-09-10T19:55:22.302820</dc:date>
    <dc:format>image/svg+xml</dc:format>
    <dc:creator>
     <cc:Agent>
      <dc:title>Matplotlib v3.11.1, https://matplotlib.org/</dc:title>
     </cc:Agent>
    </dc:creator>
   </cc:Work>
  </rdf:RDF>
 </metadata>
 <defs>
  <style type="text/css">*{stroke-linejoin: round; stroke-linecap: butt}</style>
 </defs>
 <g id="figure_1">
  <g id="patch_1">
   <path d="M 0 231.59952 
L 375.59952 231.59952 
L 375.59952 0 
L 0 0 
z
" style="fill: #ffffff"/>
  </g>
  <g id="axes_1">
   <g id="patch_2">
    <path d="M 47.675156 197.479207 
L 371.99952 197.479207 
L 371.99952 3.6 
L 47.675156 3.6 
z
" style="fill: #ffffff"/>
   </g>
   <g id="matplotlib.axis_1">
    <g id="xtick_1">
     <g id="line2d_1">
      <path d="M 62.417173 197.479207 
L 62.417173 3.6 
" clip-path="url(#p75de74ab87)" style="fill: none; stroke: #b0b0b0; stroke-opacity: 0.3; stroke-width: 0.5; stroke-linecap: square"/>
     </g>
     <g id="line2d_2">
      <defs>
       <path id="m97fa7d190e" d="M 0 0 
L 0 3.5 
" style="stroke: #000000; stroke-width: 0.8"/>
      </defs>
      <g>
       <use xlink:href="#m97fa7d190e" x="62.417173" y="197.479207" style="stroke: #000000; stroke-width: 0.8"/>
      </g>
     </g>
     <g id="text_1">
      <text style="font-size: 9px; font-family: 'Noto Serif SC', 'Times New Roman', 'Times', 'DejaVu Serif', serif; text-anchor: middle" x="62.417173" y="212.399207" transform="rotate(-0 62.417173 212.399207)">0</text>
     </g>
    </g>
    <g id="xtick_2">
     <g id="line2d_3">
      <path d="M 121.385239 197.479207 
L 121.385239 3.6 
" clip-path="url(#p75de74ab87)" style="fill: none; stroke: #b0b0b0; stroke-opacity: 0.3; stroke-width: 0.5; stroke-linecap: square"/>
     </g>
     <g id="line2d_4">
      <g>
       <use xlink:href="#m97fa7d190e" x="121.385239" y="197.479207" style="stroke: #000000; stroke-width: 0.8"/>
      </g>
     </g>
     <g id="text_2">
      <text style="font-size: 9px; font-family: 'Noto Serif SC', 'Times New Roman', 'Times', 'DejaVu Serif', serif; text-anchor: middle" x="121.385239" y="212.399207" transform="rotate(-0 121.385239 212.399207)">20</text>
     </g>
    </g>
    <g id="xtick_3">
     <g id="line2d_5">
      <path d="M 180.353305 197.479207 
L 180.353305 3.6 
" clip-path="url(#p75de74ab87)" style="fill: none; stroke: #b0b0b0; stroke-opacity: 0.3; stroke-width: 0.5; stroke-linecap: square"/>
     </g>
     <g id="line2d_6">
      <g>
       <use xlink:href="#m97fa7d190e" x="180.353305" y="197.479207" style="stroke: #000000; stroke-width: 0.8"/>
      </g>
     </g>
     <g id="text_3">
      <text style="font-size: 9px; font-family: 'Noto Serif SC', 'Times New Roman', 'Times', 'DejaVu Serif', serif; text-anchor: middle" x="180.353305" y="212.399207" transform="rotate(-0 180.353305 212.399207)">40</text>
     </g>
    </g>
    <g id="xtick_4">
     <g id="line2d_7">
      <path d="M 239.321371 197.479207 
L 239.321371 3.6 
" clip-path="url(#p75de74ab87)" style="fill: none; stroke: #b0b0b0; stroke-opacity: 0.3; stroke-width: 0.5; stroke-linecap: square"/>
     </g>
     <g id="line2d_8">
      <g>
       <use xlink:href="#m97fa7d190e" x="239.321371" y="197.479207" style="stroke: #000000; stroke-width: 0.8"/>
      </g>
     </g>
     <g id="text_4">
      <text style="font-size: 9px; font-family: 'Noto Serif SC', 'Times New Roman', 'Times', 'DejaVu Serif', serif; text-anchor: middle" x="239.321371" y="212.399207" transform="rotate(-0 239.321371 212.399207)">60</text>
     </g>
    </g>
    <g id="xtick_5">
     <g id="line2d_9">
      <path d="M 298.289437 197.479207 
L 298.289437 3.6 
" clip-path="url(#p75de74ab87)" style="fill: none; stroke: #b0b0b0; stroke-opacity: 0.3; stroke-width: 0.5; stroke-linecap: square"/>
     </g>
     <g id="line2d_10">
      <g>
       <use xlink:href="#m97fa7d190e" x="298.289437" y="197.479207" style="stroke: #000000; stroke-width: 0.8"/>
      </g>
     </g>
     <g id="text_5">
      <text style="font-size: 9px; font-family: 'Noto Serif SC', 'Times New Roman', 'Times', 'DejaVu Serif', serif; text-anchor: middle" x="298.289437" y="212.399207" transform="rotate(-0 298.289437 212.399207)">80</text>
     </g>
    </g>
    <g id="xtick_6">
     <g id="line2d_11">
      <path d="M 357.257503 197.479207 
L 357.257503 3.6 
" clip-path="url(#p75de74ab87)" style="fill: none; stroke: #b0b0b0; stroke-opacity: 0.3; stroke-width: 0.5; stroke-linecap: square"/>
     </g>
     <g id="line2d_12">
      <g>
       <use xlink:href="#m97fa7d190e" x="357.257503" y="197.479207" style="stroke: #000000; stroke-width: 0.8"/>
      </g>
     </g>
     <g id="text_6">
      <text style="font-size: 9px; font-family: 'Noto Serif SC', 'Times New Roman', 'Times', 'DejaVu Serif', serif; text-anchor: middle" x="357.257503" y="212.399207" transform="rotate(-0 357.257503 212.399207)">100</text>
     </g>
    </g>
    <g id="text_7">
     <text style="font-size: 10px; font-family: 'Noto Serif SC', 'Times New Roman', 'Times', 'DejaVu Serif', serif; text-anchor: middle" x="209.837338" y="226.279207" transform="rotate(-0 209.837338 226.279207)">累计区间比例 / %</text>
    </g>
   </g>
   <g id="matplotlib.axis_2">
    <g id="ytick_1">
     <g id="line2d_13">
      <path d="M 47.675156 185.738299 
L 371.99952 185.738299 
" clip-path="url(#p75de74ab87)" style="fill: none; stroke: #b0b0b0; stroke-opacity: 0.3; stroke-width: 0.5; stroke-linecap: square"/>
     </g>
     <g id="line2d_14">
      <defs>
       <path id="mf4fb9012c0" d="M 0 0 
L -3.5 0 
" style="stroke: #000000; stroke-width: 0.8"/>
      </defs>
      <g>
       <use xlink:href="#mf4fb9012c0" x="47.675156" y="185.738299" style="stroke: #000000; stroke-width: 0.8"/>
      </g>
     </g>
     <g id="text_8">
      <text style="font-size: 9px; font-family: 'Noto Serif SC', 'Times New Roman', 'Times', 'DejaVu Serif', serif; text-anchor: end" x="40.675156" y="189.698299" transform="rotate(-0 40.675156 189.698299)">-2000</text>
     </g>
    </g>
    <g id="ytick_2">
     <g id="line2d_15">
      <path d="M 47.675156 160.822663 
L 371.99952 160.822663 
" clip-path="url(#p75de74ab87)" style="fill: none; stroke: #b0b0b0; stroke-opacity: 0.3; stroke-width: 0.5; stroke-linecap: square"/>
     </g>
     <g id="line2d_16">
      <g>
       <use xlink:href="#mf4fb9012c0" x="47.675156" y="160.822663" style="stroke: #000000; stroke-width: 0.8"/>
      </g>
     </g>
     <g id="text_9">
      <text style="font-size: 9px; font-family: 'Noto Serif SC', 'Times New Roman', 'Times', 'DejaVu Serif', serif; text-anchor: end" x="40.675156" y="164.782663" transform="rotate(-0 40.675156 164.782663)">-1000</text>
     </g>
    </g>
    <g id="ytick_3">
     <g id="line2d_17">
      <path d="M 47.675156 135.907027 
L 371.99952 135.907027 
" clip-path="url(#p75de74ab87)" style="fill: none; stroke: #b0b0b0; stroke-opacity: 0.3; stroke-width: 0.5; stroke-linecap: square"/>
     </g>
     <g id="line2d_18">
      <g>
       <use xlink:href="#mf4fb9012c0" x="47.675156" y="135.907027" style="stroke: #000000; stroke-width: 0.8"/>
      </g>
     </g>
     <g id="text_10">
      <text style="font-size: 9px; font-family: 'Noto Serif SC', 'Times New Roman', 'Times', 'DejaVu Serif', serif; text-anchor: end" x="40.675156" y="139.867027" transform="rotate(-0 40.675156 139.867027)">0</text>
     </g>
    </g>
    <g id="ytick_4">
     <g id="line2d_19">
      <path d="M 47.675156 110.991392 
L 371.99952 110.991392 
" clip-path="url(#p75de74ab87)" style="fill: none; stroke: #b0b0b0; stroke-opacity: 0.3; stroke-width: 0.5; stroke-linecap: square"/>
     </g>
     <g id="line2d_20">
      <g>
       <use xlink:href="#mf4fb9012c0" x="47.675156" y="110.991392" style="stroke: #000000; stroke-width: 0.8"/>
      </g>
     </g>
     <g id="text_11">
      <text style="font-size: 9px; font-family: 'Noto Serif SC', 'Times New Roman', 'Times', 'DejaVu Serif', serif; text-anchor: end" x="40.675156" y="114.951392" transform="rotate(-0 40.675156 114.951392)">1000</text>
     </g>
    </g>
    <g id="ytick_5">
     <g id="line2d_21">
      <path d="M 47.675156 86.075756 
L 371.99952 86.075756 
" clip-path="url(#p75de74ab87)" style="fill: none; stroke: #b0b0b0; stroke-opacity: 0.3; stroke-width: 0.5; stroke-linecap: square"/>
     </g>
     <g id="line2d_22">
      <g>
       <use xlink:href="#mf4fb9012c0" x="47.675156" y="86.075756" style="stroke: #000000; stroke-width: 0.8"/>
      </g>
     </g>
     <g id="text_12">
      <text style="font-size: 9px; font-family: 'Noto Serif SC', 'Times New Roman', 'Times', 'DejaVu Serif', serif; text-anchor: end" x="40.675156" y="90.035756" transform="rotate(-0 40.675156 90.035756)">2000</text>
     </g>
    </g>
    <g id="ytick_6">
     <g id="line2d_23">
      <path d="M 47.675156 61.16012 
L 371.99952 61.16012 
" clip-path="url(#p75de74ab87)" style="fill: none; stroke: #b0b0b0; stroke-opacity: 0.3; stroke-width: 0.5; stroke-linecap: square"/>
     </g>
     <g id="line2d_24">
      <g>
       <use xlink:href="#mf4fb9012c0" x="47.675156" y="61.16012" style="stroke: #000000; stroke-width: 0.8"/>
      </g>
     </g>
     <g id="text_13">
      <text style="font-size: 9px; font-family: 'Noto Serif SC', 'Times New Roman', 'Times', 'DejaVu Serif', serif; text-anchor: end" x="40.675156" y="65.12012" transform="rotate(-0 40.675156 65.12012)">3000</text>
     </g>
    </g>
    <g id="ytick_7">
     <g id="line2d_25">
      <path d="M 47.675156 36.244484 
L 371.99952 36.244484 
" clip-path="url(#p75de74ab87)" style="fill: none; stroke: #b0b0b0; stroke-opacity: 0.3; stroke-width: 0.5; stroke-linecap: square"/>
     </g>
     <g id="line2d_26">
      <g>
       <use xlink:href="#mf4fb9012c0" x="47.675156" y="36.244484" style="stroke: #000000; stroke-width: 0.8"/>
      </g>
     </g>
     <g id="text_14">
      <text style="font-size: 9px; font-family: 'Noto Serif SC', 'Times New Roman', 'Times', 'DejaVu Serif', serif; text-anchor: end" x="40.675156" y="40.204484" transform="rotate(-0 40.675156 40.204484)">4000</text>
     </g>
    </g>
    <g id="ytick_8">
     <g id="line2d_27">
      <path d="M 47.675156 11.328849 
L 371.99952 11.328849 
" clip-path="url(#p75de74ab87)" style="fill: none; stroke: #b0b0b0; stroke-opacity: 0.3; stroke-width: 0.5; stroke-linecap: square"/>
     </g>
     <g id="line2d_28">
      <g>
       <use xlink:href="#mf4fb9012c0" x="47.675156" y="11.328849" style="stroke: #000000; stroke-width: 0.8"/>
      </g>
     </g>
     <g id="text_15">
      <text style="font-size: 9px; font-family: 'Noto Serif SC', 'Times New Roman', 'Times', 'DejaVu Serif', serif; text-anchor: end" x="40.675156" y="15.288849" transform="rotate(-0 40.675156 15.288849)">5000</text>
     </g>
    </g>
    <g id="text_16">
     <text style="font-size: 10px; font-family: 'Noto Serif SC', 'Times New Roman', 'Times', 'DejaVu Serif', serif; text-anchor: middle" x="12.4" y="100.539604" transform="rotate(-90 12.4 100.539604)">净负载 / kW</text>
    </g>
   </g>
   <g id="line2d_29">
    <path d="M 62.417173 12.412691 
L 64.478993 19.908092 
L 66.540814 21.929535 
L 68.602634 25.560453 
L 70.664455 25.570758 
L 72.726275 28.204812 
L 74.788096 28.247517 
L 76.849916 28.71176 
L 78.911737 28.719197 
L 80.973557 28.889052 
L 87.159019 28.985037 
L 91.28266 29.517886 
L 95.406301 29.582175 
L 97.468121 29.849107 
L 103.653583 30.292034 
L 107.777224 30.956848 
L 109.839044 31.78393 
L 111.900865 33.314132 
L 116.024506 35.492994 
L 118.086326 36.007205 
L 120.148147 37.116928 
L 122.209967 37.920509 
L 124.271788 40.057379 
L 126.333608 40.682066 
L 128.395429 40.91421 
L 130.457249 43.743488 
L 132.51907 46.212916 
L 134.58089 46.542578 
L 138.704531 46.933915 
L 140.766352 47.158577 
L 146.951813 47.28913 
L 149.013634 47.488241 
L 163.446377 47.782639 
L 167.570018 48.176642 
L 177.87912 48.572006 
L 184.064582 49.138508 
L 186.126402 49.431516 
L 190.250043 49.520577 
L 192.311864 49.525308 
L 194.373684 49.702912 
L 198.497325 49.837366 
L 200.559146 50.079492 
L 206.744607 50.220636 
L 208.806428 50.24759 
L 214.991889 50.791433 
L 219.11553 51.019932 
L 221.177351 51.181792 
L 223.239171 51.212737 
L 225.300992 51.528752 
L 227.362812 51.644059 
L 231.486453 52.566189 
L 233.548274 53.451387 
L 235.610094 53.636627 
L 237.671915 54.116114 
L 239.733735 56.788966 
L 241.795556 60.790763 
L 243.857376 61.803454 
L 245.919197 67.821031 
L 247.981017 69.317751 
L 250.042838 73.355609 
L 252.104658 74.604592 
L 254.166479 76.867213 
L 256.228299 78.813728 
L 258.29012 82.538216 
L 260.35194 84.21543 
L 262.413761 87.966735 
L 264.475581 89.630268 
L 266.537402 91.72643 
L 268.599222 93.545927 
L 272.722863 99.308844 
L 274.784684 103.9541 
L 276.846504 106.378483 
L 278.908325 109.213574 
L 280.970145 112.676867 
L 283.031966 112.845835 
L 285.093786 119.124926 
L 287.155607 119.150286 
L 289.217427 125.843101 
L 291.279248 126.280094 
L 293.341068 132.35186 
L 295.402889 132.53411 
L 297.464709 138.337069 
L 299.52653 138.511817 
L 301.58835 143.805947 
L 303.650171 143.923613 
L 305.711991 148.548585 
L 307.773812 149.034744 
L 309.835632 153.395349 
L 311.897453 153.851522 
L 313.959273 157.83188 
L 316.021094 158.591263 
L 318.082914 161.847231 
L 320.144735 162.421223 
L 322.206555 165.620316 
L 324.268376 165.959632 
L 326.330196 169.255447 
L 328.392017 169.603847 
L 330.453837 172.160406 
L 332.515658 172.384901 
L 334.577478 174.500712 
L 336.639299 175.449215 
L 338.701119 176.663755 
L 340.76294 178.411256 
L 342.82476 179.155807 
L 344.886581 181.435633 
L 346.948401 182.729808 
L 349.010221 185.996813 
L 351.072042 187.441487 
L 353.133862 187.770981 
L 355.195683 187.935858 
L 357.257503 188.666516 
L 357.257503 188.666516 
" clip-path="url(#p75de74ab87)" style="fill: none; stroke: #009e73; stroke-width: 1.2; stroke-linecap: square"/>
   </g>
   <g id="line2d_30">
    <path d="M 47.675156 135.907027 
L 371.99952 135.907027 
" clip-path="url(#p75de74ab87)" style="fill: none; stroke-dasharray: 2.96,1.28; stroke-dashoffset: 0; stroke: #666666; stroke-width: 0.8"/>
   </g>
   <g id="patch_3">
    <path d="M 47.675156 197.479207 
L 47.675156 3.6 
" style="fill: none; stroke: #000000; stroke-width: 0.8; stroke-linejoin: miter; stroke-linecap: square"/>
   </g>
   <g id="patch_4">
    <path d="M 47.675156 197.479207 
L 371.99952 197.479207 
" style="fill: none; stroke: #000000; stroke-width: 0.8; stroke-linejoin: miter; stroke-linecap: square"/>
   </g>
  </g>
 </g>
 <defs>
  <clipPath id="p75de74ab87">
   <rect x="47.675156" y="3.6" width="324.324364" height="193.879207"/>
  </clipPath>
 </defs>
</svg>
