<?xml version="1.0" encoding="utf-8" standalone="no"?>
<!DOCTYPE svg PUBLIC "-//W3C//DTD SVG 1.1//EN"
  "http://www.w3.org/Graphics/SVG/1.1/DTD/svg11.dtd">
<svg xmlns:xlink="http://www.w3.org/1999/xlink" width="375.59952pt" height="231.59952pt" viewBox="0 0 375.59952 231.59952" xmlns="http://www.w3.org/2000/svg" version="1.1">
 <metadata>
  <rdf:RDF xmlns:dc="http://purl.org/dc/elements/1.1/" xmlns:cc="http://creativecommons.org/ns#" xmlns:rdf="http://www.w3.org/1999/02/22-rdf-syntax-ns#">
   <cc:Work>
    <dc:type rdf:resource="http://purl.org/dc/dcmitype/StillImage"/>
    <dc:date>2026-09-10T19:55:22.002018</dc:date>
    <dc:format>image/svg+xml</dc:format>
    <dc:creator>
     <cc:Agent>
      <dc:title>Matplotlib v3.11.1, https://matplotlib.org/</dc:title>
     </cc:Agent>
    </dc:creator>
   </cc:Work>
  </rdf:RDF>
 </metadata>
 <defs>
  <style type="text/css">*{stroke-linejoin: round; stroke-linecap: butt}</style>
 </defs>
 <g id="figure_1">
  <g id="patch_1">
   <path d="M 0 231.59952 
L 375.59952 231.59952 
L 375.59952 0 
L 0 0 
z
" style="fill: #ffffff"/>
  </g>
  <g id="axes_1">
   <g id="patch_2">
    <path d="M 34.895156 197.479207 
L 371.99952 197.479207 
L 371.99952 3.6 
L 34.895156 3.6 
z
" style="fill: #ffffff"/>
   </g>
   <g id="patch_3">
    <path d="M 183.448465 197.479207 
L 187.892936 197.479207 
L 187.892936 174.073267 
L 183.448465 174.073267 
z
" clip-path="url(#p6a2713626e)" style="fill: #0072b2; opacity: 0.75"/>
   </g>
   <g id="patch_4">
    <path d="M 187.892936 197.479207 
L 192.337407 197.479207 
L 192.337407 135.063366 
L 187.892936 135.063366 
z
" clip-path="url(#p6a2713626e)" style="fill: #0072b2; opacity: 0.75"/>
   </g>
   <g id="patch_5">
    <path d="M 192.337407 197.479207 
L 196.781877 197.479207 
L 196.781877 161.069967 
L 192.337407 161.069967 
z
" clip-path="url(#p6a2713626e)" style="fill: #0072b2; opacity: 0.75"/>
   </g>
   <g id="patch_6">
    <path d="M 196.781877 197.479207 
L 201.226348 197.479207 
L 201.226348 197.479207 
L 196.781877 197.479207 
z
" clip-path="url(#p6a2713626e)" style="fill: #0072b2; opacity: 0.75"/>
   </g>
   <g id="patch_7">
    <path d="M 201.226348 197.479207 
L 205.670819 197.479207 
L 205.670819 194.878547 
L 201.226348 194.878547 
z
" clip-path="url(#p6a2713626e)" style="fill: #0072b2; opacity: 0.75"/>
   </g>
   <g id="patch_8">
    <path d="M 205.670819 197.479207 
L 210.11529 197.479207 
L 210.11529 197.479207 
L 205.670819 197.479207 
z
" clip-path="url(#p6a2713626e)" style="fill: #0072b2; opacity: 0.75"/>
   </g>
   <g id="patch_9">
    <path d="M 210.11529 197.479207 
L 214.559761 197.479207 
L 214.559761 194.878547 
L 210.11529 194.878547 
z
" clip-path="url(#p6a2713626e)" style="fill: #0072b2; opacity: 0.75"/>
   </g>
   <g id="patch_10">
    <path d="M 214.559761 197.479207 
L 219.004231 197.479207 
L 219.004231 194.878547 
L 214.559761 194.878547 
z
" clip-path="url(#p6a2713626e)" style="fill: #0072b2; opacity: 0.75"/>
   </g>
   <g id="patch_11">
    <path d="M 219.004231 197.479207 
L 223.448702 197.479207 
L 223.448702 148.066666 
L 219.004231 148.066666 
z
" clip-path="url(#p6a2713626e)" style="fill: #0072b2; opacity: 0.75"/>
   </g>
   <g id="patch_12">
    <path d="M 223.448702 197.479207 
L 227.893173 197.479207 
L 227.893173 179.274587 
L 223.448702 179.274587 
z
" clip-path="url(#p6a2713626e)" style="fill: #0072b2; opacity: 0.75"/>
   </g>
   <g id="patch_13">
    <path d="M 227.893173 197.479207 
L 232.337644 197.479207 
L 232.337644 184.475907 
L 227.893173 184.475907 
z
" clip-path="url(#p6a2713626e)" style="fill: #0072b2; opacity: 0.75"/>
   </g>
   <g id="patch_14">
    <path d="M 232.337644 197.479207 
L 236.782114 197.479207 
L 236.782114 192.277887 
L 232.337644 192.277887 
z
" clip-path="url(#p6a2713626e)" style="fill: #0072b2; opacity: 0.75"/>
   </g>
   <g id="patch_15">
    <path d="M 236.782114 197.479207 
L 241.226585 197.479207 
L 241.226585 197.479207 
L 236.782114 197.479207 
z
" clip-path="url(#p6a2713626e)" style="fill: #0072b2; opacity: 0.75"/>
   </g>
   <g id="patch_16">
    <path d="M 241.226585 197.479207 
L 245.671056 197.479207 
L 245.671056 197.479207 
L 241.226585 197.479207 
z
" clip-path="url(#p6a2713626e)" style="fill: #0072b2; opacity: 0.75"/>
   </g>
   <g id="patch_17">
    <path d="M 245.671056 197.479207 
L 250.115527 197.479207 
L 250.115527 194.878547 
L 245.671056 194.878547 
z
" clip-path="url(#p6a2713626e)" style="fill: #0072b2; opacity: 0.75"/>
   </g>
   <g id="patch_18">
    <path d="M 250.115527 197.479207 
L 254.559997 197.479207 
L 254.559997 197.479207 
L 250.115527 197.479207 
z
" clip-path="url(#p6a2713626e)" style="fill: #0072b2; opacity: 0.75"/>
   </g>
   <g id="patch_19">
    <path d="M 254.559997 197.479207 
L 259.004468 197.479207 
L 259.004468 194.878547 
L 254.559997 194.878547 
z
" clip-path="url(#p6a2713626e)" style="fill: #0072b2; opacity: 0.75"/>
   </g>
   <g id="patch_20">
    <path d="M 259.004468 197.479207 
L 263.448939 197.479207 
L 263.448939 197.479207 
L 259.004468 197.479207 
z
" clip-path="url(#p6a2713626e)" style="fill: #0072b2; opacity: 0.75"/>
   </g>
   <g id="patch_21">
    <path d="M 263.448939 197.479207 
L 267.89341 197.479207 
L 267.89341 197.479207 
L 263.448939 197.479207 
z
" clip-path="url(#p6a2713626e)" style="fill: #0072b2; opacity: 0.75"/>
   </g>
   <g id="patch_22">
    <path d="M 267.89341 197.479207 
L 272.33788 197.479207 
L 272.33788 176.673927 
L 267.89341 176.673927 
z
" clip-path="url(#p6a2713626e)" style="fill: #0072b2; opacity: 0.75"/>
   </g>
   <g id="patch_23">
    <path d="M 272.33788 197.479207 
L 276.782351 197.479207 
L 276.782351 187.076567 
L 272.33788 187.076567 
z
" clip-path="url(#p6a2713626e)" style="fill: #0072b2; opacity: 0.75"/>
   </g>
   <g id="patch_24">
    <path d="M 276.782351 197.479207 
L 281.226822 197.479207 
L 281.226822 137.664026 
L 276.782351 137.664026 
z
" clip-path="url(#p6a2713626e)" style="fill: #0072b2; opacity: 0.75"/>
   </g>
   <g id="patch_25">
    <path d="M 281.226822 197.479207 
L 285.671293 197.479207 
L 285.671293 166.271287 
L 281.226822 166.271287 
z
" clip-path="url(#p6a2713626e)" style="fill: #0072b2; opacity: 0.75"/>
   </g>
   <g id="patch_26">
    <path d="M 285.671293 197.479207 
L 290.115763 197.479207 
L 290.115763 166.271287 
L 285.671293 166.271287 
z
" clip-path="url(#p6a2713626e)" style="fill: #0072b2; opacity: 0.75"/>
   </g>
   <g id="patch_27">
    <path d="M 50.218082 197.479207 
L 62.987187 197.479207 
L 62.987187 12.832343 
L 50.218082 12.832343 
z
" clip-path="url(#p6a2713626e)" style="fill: #e69f00; opacity: 0.65"/>
   </g>
   <g id="patch_28">
    <path d="M 62.987187 197.479207 
L 75.756291 197.479207 
L 75.756291 187.076567 
L 62.987187 187.076567 
z
" clip-path="url(#p6a2713626e)" style="fill: #e69f00; opacity: 0.65"/>
   </g>
   <g id="patch_29">
    <path d="M 75.756291 197.479207 
L 88.525396 197.479207 
L 88.525396 187.076567 
L 75.756291 187.076567 
z
" clip-path="url(#p6a2713626e)" style="fill: #e69f00; opacity: 0.65"/>
   </g>
   <g id="patch_30">
    <path d="M 88.525396 197.479207 
L 101.294501 197.479207 
L 101.294501 187.076567 
L 88.525396 187.076567 
z
" clip-path="url(#p6a2713626e)" style="fill: #e69f00; opacity: 0.65"/>
   </g>
   <g id="patch_31">
    <path d="M 101.294501 197.479207 
L 114.063605 197.479207 
L 114.063605 192.277887 
L 101.294501 192.277887 
z
" clip-path="url(#p6a2713626e)" style="fill: #e69f00; opacity: 0.65"/>
   </g>
   <g id="patch_32">
    <path d="M 114.063605 197.479207 
L 126.83271 197.479207 
L 126.83271 192.277887 
L 114.063605 192.277887 
z
" clip-path="url(#p6a2713626e)" style="fill: #e69f00; opacity: 0.65"/>
   </g>
   <g id="patch_33">
    <path d="M 126.83271 197.479207 
L 139.601815 197.479207 
L 139.601815 192.277887 
L 126.83271 192.277887 
z
" clip-path="url(#p6a2713626e)" style="fill: #e69f00; opacity: 0.65"/>
   </g>
   <g id="patch_34">
    <path d="M 139.601815 197.479207 
L 152.370919 197.479207 
L 152.370919 192.277887 
L 139.601815 192.277887 
z
" clip-path="url(#p6a2713626e)" style="fill: #e69f00; opacity: 0.65"/>
   </g>
   <g id="patch_35">
    <path d="M 152.370919 197.479207 
L 165.140024 197.479207 
L 165.140024 192.277887 
L 152.370919 192.277887 
z
" clip-path="url(#p6a2713626e)" style="fill: #e69f00; opacity: 0.65"/>
   </g>
   <g id="patch_36">
    <path d="M 165.140024 197.479207 
L 177.909129 197.479207 
L 177.909129 192.277887 
L 165.140024 192.277887 
z
" clip-path="url(#p6a2713626e)" style="fill: #e69f00; opacity: 0.65"/>
   </g>
   <g id="patch_37">
    <path d="M 177.909129 197.479207 
L 190.678233 197.479207 
L 190.678233 192.277887 
L 177.909129 192.277887 
z
" clip-path="url(#p6a2713626e)" style="fill: #e69f00; opacity: 0.65"/>
   </g>
   <g id="patch_38">
    <path d="M 190.678233 197.479207 
L 203.447338 197.479207 
L 203.447338 192.277887 
L 190.678233 192.277887 
z
" clip-path="url(#p6a2713626e)" style="fill: #e69f00; opacity: 0.65"/>
   </g>
   <g id="patch_39">
    <path d="M 203.447338 197.479207 
L 216.216443 197.479207 
L 216.216443 192.277887 
L 203.447338 192.277887 
z
" clip-path="url(#p6a2713626e)" style="fill: #e69f00; opacity: 0.65"/>
   </g>
   <g id="patch_40">
    <path d="M 216.216443 197.479207 
L 228.985548 197.479207 
L 228.985548 192.277887 
L 216.216443 192.277887 
z
" clip-path="url(#p6a2713626e)" style="fill: #e69f00; opacity: 0.65"/>
   </g>
   <g id="patch_41">
    <path d="M 228.985548 197.479207 
L 241.754652 197.479207 
L 241.754652 187.076567 
L 228.985548 187.076567 
z
" clip-path="url(#p6a2713626e)" style="fill: #e69f00; opacity: 0.65"/>
   </g>
   <g id="patch_42">
    <path d="M 241.754652 197.479207 
L 254.523757 197.479207 
L 254.523757 192.277887 
L 241.754652 192.277887 
z
" clip-path="url(#p6a2713626e)" style="fill: #e69f00; opacity: 0.65"/>
   </g>
   <g id="patch_43">
    <path d="M 254.523757 197.479207 
L 267.292862 197.479207 
L 267.292862 192.277887 
L 254.523757 192.277887 
z
" clip-path="url(#p6a2713626e)" style="fill: #e69f00; opacity: 0.65"/>
   </g>
   <g id="patch_44">
    <path d="M 267.292862 197.479207 
L 280.061966 197.479207 
L 280.061966 192.277887 
L 267.292862 192.277887 
z
" clip-path="url(#p6a2713626e)" style="fill: #e69f00; opacity: 0.65"/>
   </g>
   <g id="patch_45">
    <path d="M 280.061966 197.479207 
L 292.831071 197.479207 
L 292.831071 187.076567 
L 280.061966 187.076567 
z
" clip-path="url(#p6a2713626e)" style="fill: #e69f00; opacity: 0.65"/>
   </g>
   <g id="patch_46">
    <path d="M 292.831071 197.479207 
L 305.600176 197.479207 
L 305.600176 192.277887 
L 292.831071 192.277887 
z
" clip-path="url(#p6a2713626e)" style="fill: #e69f00; opacity: 0.65"/>
   </g>
   <g id="patch_47">
    <path d="M 305.600176 197.479207 
L 318.36928 197.479207 
L 318.36928 187.076567 
L 305.600176 187.076567 
z
" clip-path="url(#p6a2713626e)" style="fill: #e69f00; opacity: 0.65"/>
   </g>
   <g id="patch_48">
    <path d="M 318.36928 197.479207 
L 331.138385 197.479207 
L 331.138385 187.076567 
L 318.36928 187.076567 
z
" clip-path="url(#p6a2713626e)" style="fill: #e69f00; opacity: 0.65"/>
   </g>
   <g id="patch_49">
    <path d="M 331.138385 197.479207 
L 343.90749 197.479207 
L 343.90749 187.076567 
L 331.138385 187.076567 
z
" clip-path="url(#p6a2713626e)" style="fill: #e69f00; opacity: 0.65"/>
   </g>
   <g id="patch_50">
    <path d="M 343.90749 197.479207 
L 356.676594 197.479207 
L 356.676594 163.670627 
L 343.90749 163.670627 
z
" clip-path="url(#p6a2713626e)" style="fill: #e69f00; opacity: 0.65"/>
   </g>
   <g id="matplotlib.axis_1">
    <g id="xtick_1">
     <g id="line2d_1">
      <path d="M 50.218082 197.479207 
L 50.218082 3.6 
" clip-path="url(#p6a2713626e)" style="fill: none; stroke: #b0b0b0; stroke-opacity: 0.3; stroke-width: 0.5; stroke-linecap: square"/>
     </g>
     <g id="line2d_2">
      <defs>
       <path id="m535e4dc3bd" d="M 0 0 
L 0 3.5 
" style="stroke: #000000; stroke-width: 0.8"/>
      </defs>
      <g>
       <use xlink:href="#m535e4dc3bd" x="50.218082" y="197.479207" style="stroke: #000000; stroke-width: 0.8"/>
      </g>
     </g>
     <g id="text_1">
      <text style="font-size: 9px; font-family: 'Noto Serif SC', 'Times New Roman', 'Times', 'DejaVu Serif', serif; text-anchor: middle" x="50.218082" y="212.399207" transform="rotate(-0 50.218082 212.399207)">0</text>
     </g>
    </g>
    <g id="xtick_2">
     <g id="line2d_3">
      <path d="M 90.476331 197.479207 
L 90.476331 3.6 
" clip-path="url(#p6a2713626e)" style="fill: none; stroke: #b0b0b0; stroke-opacity: 0.3; stroke-width: 0.5; stroke-linecap: square"/>
     </g>
     <g id="line2d_4">
      <g>
       <use xlink:href="#m535e4dc3bd" x="90.476331" y="197.479207" style="stroke: #000000; stroke-width: 0.8"/>
      </g>
     </g>
     <g id="text_2">
      <text style="font-size: 9px; font-family: 'Noto Serif SC', 'Times New Roman', 'Times', 'DejaVu Serif', serif; text-anchor: middle" x="90.476331" y="212.399207" transform="rotate(-0 90.476331 212.399207)">1000</text>
     </g>
    </g>
    <g id="xtick_3">
     <g id="line2d_5">
      <path d="M 130.73458 197.479207 
L 130.73458 3.6 
" clip-path="url(#p6a2713626e)" style="fill: none; stroke: #b0b0b0; stroke-opacity: 0.3; stroke-width: 0.5; stroke-linecap: square"/>
     </g>
     <g id="line2d_6">
      <g>
       <use xlink:href="#m535e4dc3bd" x="130.73458" y="197.479207" style="stroke: #000000; stroke-width: 0.8"/>
      </g>
     </g>
     <g id="text_3">
      <text style="font-size: 9px; font-family: 'Noto Serif SC', 'Times New Roman', 'Times', 'DejaVu Serif', serif; text-anchor: middle" x="130.73458" y="212.399207" transform="rotate(-0 130.73458 212.399207)">2000</text>
     </g>
    </g>
    <g id="xtick_4">
     <g id="line2d_7">
      <path d="M 170.992829 197.479207 
L 170.992829 3.6 
" clip-path="url(#p6a2713626e)" style="fill: none; stroke: #b0b0b0; stroke-opacity: 0.3; stroke-width: 0.5; stroke-linecap: square"/>
     </g>
     <g id="line2d_8">
      <g>
       <use xlink:href="#m535e4dc3bd" x="170.992829" y="197.479207" style="stroke: #000000; stroke-width: 0.8"/>
      </g>
     </g>
     <g id="text_4">
      <text style="font-size: 9px; font-family: 'Noto Serif SC', 'Times New Roman', 'Times', 'DejaVu Serif', serif; text-anchor: middle" x="170.992829" y="212.399207" transform="rotate(-0 170.992829 212.399207)">3000</text>
     </g>
    </g>
    <g id="xtick_5">
     <g id="line2d_9">
      <path d="M 211.251078 197.479207 
L 211.251078 3.6 
" clip-path="url(#p6a2713626e)" style="fill: none; stroke: #b0b0b0; stroke-opacity: 0.3; stroke-width: 0.5; stroke-linecap: square"/>
     </g>
     <g id="line2d_10">
      <g>
       <use xlink:href="#m535e4dc3bd" x="211.251078" y="197.479207" style="stroke: #000000; stroke-width: 0.8"/>
      </g>
     </g>
     <g id="text_5">
      <text style="font-size: 9px; font-family: 'Noto Serif SC', 'Times New Roman', 'Times', 'DejaVu Serif', serif; text-anchor: middle" x="211.251078" y="212.399207" transform="rotate(-0 211.251078 212.399207)">4000</text>
     </g>
    </g>
    <g id="xtick_6">
     <g id="line2d_11">
      <path d="M 251.509327 197.479207 
L 251.509327 3.6 
" clip-path="url(#p6a2713626e)" style="fill: none; stroke: #b0b0b0; stroke-opacity: 0.3; stroke-width: 0.5; stroke-linecap: square"/>
     </g>
     <g id="line2d_12">
      <g>
       <use xlink:href="#m535e4dc3bd" x="251.509327" y="197.479207" style="stroke: #000000; stroke-width: 0.8"/>
      </g>
     </g>
     <g id="text_6">
      <text style="font-size: 9px; font-family: 'Noto Serif SC', 'Times New Roman', 'Times', 'DejaVu Serif', serif; text-anchor: middle" x="251.509327" y="212.399207" transform="rotate(-0 251.509327 212.399207)">5000</text>
     </g>
    </g>
    <g id="xtick_7">
     <g id="line2d_13">
      <path d="M 291.767575 197.479207 
L 291.767575 3.6 
" clip-path="url(#p6a2713626e)" style="fill: none; stroke: #b0b0b0; stroke-opacity: 0.3; stroke-width: 0.5; stroke-linecap: square"/>
     </g>
     <g id="line2d_14">
      <g>
       <use xlink:href="#m535e4dc3bd" x="291.767575" y="197.479207" style="stroke: #000000; stroke-width: 0.8"/>
      </g>
     </g>
     <g id="text_7">
      <text style="font-size: 9px; font-family: 'Noto Serif SC', 'Times New Roman', 'Times', 'DejaVu Serif', serif; text-anchor: middle" x="291.767575" y="212.399207" transform="rotate(-0 291.767575 212.399207)">6000</text>
     </g>
    </g>
    <g id="xtick_8">
     <g id="line2d_15">
      <path d="M 332.025824 197.479207 
L 332.025824 3.6 
" clip-path="url(#p6a2713626e)" style="fill: none; stroke: #b0b0b0; stroke-opacity: 0.3; stroke-width: 0.5; stroke-linecap: square"/>
     </g>
     <g id="line2d_16">
      <g>
       <use xlink:href="#m535e4dc3bd" x="332.025824" y="197.479207" style="stroke: #000000; stroke-width: 0.8"/>
      </g>
     </g>
     <g id="text_8">
      <text style="font-size: 9px; font-family: 'Noto Serif SC', 'Times New Roman', 'Times', 'DejaVu Serif', serif; text-anchor: middle" x="332.025824" y="212.399207" transform="rotate(-0 332.025824 212.399207)">7000</text>
     </g>
    </g>
    <g id="text_9">
     <text style="font-size: 10px; font-family: 'Noto Serif SC', 'Times New Roman', 'Times', 'DejaVu Serif', serif; text-anchor: middle" x="203.447338" y="226.279207" transform="rotate(-0 203.447338 226.279207)">功率 / kW</text>
    </g>
   </g>
   <g id="matplotlib.axis_2">
    <g id="ytick_1">
     <g id="line2d_17">
      <path d="M 34.895156 197.479207 
L 371.99952 197.479207 
" clip-path="url(#p6a2713626e)" style="fill: none; stroke: #b0b0b0; stroke-opacity: 0.3; stroke-width: 0.5; stroke-linecap: square"/>
     </g>
     <g id="line2d_18">
      <defs>
       <path id="m71df3f87c2" d="M 0 0 
L -3.5 0 
" style="stroke: #000000; stroke-width: 0.8"/>
      </defs>
      <g>
       <use xlink:href="#m71df3f87c2" x="34.895156" y="197.479207" style="stroke: #000000; stroke-width: 0.8"/>
      </g>
     </g>
     <g id="text_10">
      <text style="font-size: 9px; font-family: 'Noto Serif SC', 'Times New Roman', 'Times', 'DejaVu Serif', serif; text-anchor: end" x="27.895156" y="201.439207" transform="rotate(-0 27.895156 201.439207)">0</text>
     </g>
    </g>
    <g id="ytick_2">
     <g id="line2d_19">
      <path d="M 34.895156 171.472607 
L 371.99952 171.472607 
" clip-path="url(#p6a2713626e)" style="fill: none; stroke: #b0b0b0; stroke-opacity: 0.3; stroke-width: 0.5; stroke-linecap: square"/>
     </g>
     <g id="line2d_20">
      <g>
       <use xlink:href="#m71df3f87c2" x="34.895156" y="171.472607" style="stroke: #000000; stroke-width: 0.8"/>
      </g>
     </g>
     <g id="text_11">
      <text style="font-size: 9px; font-family: 'Noto Serif SC', 'Times New Roman', 'Times', 'DejaVu Serif', serif; text-anchor: end" x="27.895156" y="175.432607" transform="rotate(-0 27.895156 175.432607)">10</text>
     </g>
    </g>
    <g id="ytick_3">
     <g id="line2d_21">
      <path d="M 34.895156 145.466006 
L 371.99952 145.466006 
" clip-path="url(#p6a2713626e)" style="fill: none; stroke: #b0b0b0; stroke-opacity: 0.3; stroke-width: 0.5; stroke-linecap: square"/>
     </g>
     <g id="line2d_22">
      <g>
       <use xlink:href="#m71df3f87c2" x="34.895156" y="145.466006" style="stroke: #000000; stroke-width: 0.8"/>
      </g>
     </g>
     <g id="text_12">
      <text style="font-size: 9px; font-family: 'Noto Serif SC', 'Times New Roman', 'Times', 'DejaVu Serif', serif; text-anchor: end" x="27.895156" y="149.426006" transform="rotate(-0 27.895156 149.426006)">20</text>
     </g>
    </g>
    <g id="ytick_4">
     <g id="line2d_23">
      <path d="M 34.895156 119.459406 
L 371.99952 119.459406 
" clip-path="url(#p6a2713626e)" style="fill: none; stroke: #b0b0b0; stroke-opacity: 0.3; stroke-width: 0.5; stroke-linecap: square"/>
     </g>
     <g id="line2d_24">
      <g>
       <use xlink:href="#m71df3f87c2" x="34.895156" y="119.459406" style="stroke: #000000; stroke-width: 0.8"/>
      </g>
     </g>
     <g id="text_13">
      <text style="font-size: 9px; font-family: 'Noto Serif SC', 'Times New Roman', 'Times', 'DejaVu Serif', serif; text-anchor: end" x="27.895156" y="123.419406" transform="rotate(-0 27.895156 123.419406)">30</text>
     </g>
    </g>
    <g id="ytick_5">
     <g id="line2d_25">
      <path d="M 34.895156 93.452805 
L 371.99952 93.452805 
" clip-path="url(#p6a2713626e)" style="fill: none; stroke: #b0b0b0; stroke-opacity: 0.3; stroke-width: 0.5; stroke-linecap: square"/>
     </g>
     <g id="line2d_26">
      <g>
       <use xlink:href="#m71df3f87c2" x="34.895156" y="93.452805" style="stroke: #000000; stroke-width: 0.8"/>
      </g>
     </g>
     <g id="text_14">
      <text style="font-size: 9px; font-family: 'Noto Serif SC', 'Times New Roman', 'Times', 'DejaVu Serif', serif; text-anchor: end" x="27.895156" y="97.412805" transform="rotate(-0 27.895156 97.412805)">40</text>
     </g>
    </g>
    <g id="ytick_6">
     <g id="line2d_27">
      <path d="M 34.895156 67.446204 
L 371.99952 67.446204 
" clip-path="url(#p6a2713626e)" style="fill: none; stroke: #b0b0b0; stroke-opacity: 0.3; stroke-width: 0.5; stroke-linecap: square"/>
     </g>
     <g id="line2d_28">
      <g>
       <use xlink:href="#m71df3f87c2" x="34.895156" y="67.446204" style="stroke: #000000; stroke-width: 0.8"/>
      </g>
     </g>
     <g id="text_15">
      <text style="font-size: 9px; font-family: 'Noto Serif SC', 'Times New Roman', 'Times', 'DejaVu Serif', serif; text-anchor: end" x="27.895156" y="71.406204" transform="rotate(-0 27.895156 71.406204)">50</text>
     </g>
    </g>
    <g id="ytick_7">
     <g id="line2d_29">
      <path d="M 34.895156 41.439604 
L 371.99952 41.439604 
" clip-path="url(#p6a2713626e)" style="fill: none; stroke: #b0b0b0; stroke-opacity: 0.3; stroke-width: 0.5; stroke-linecap: square"/>
     </g>
     <g id="line2d_30">
      <g>
       <use xlink:href="#m71df3f87c2" x="34.895156" y="41.439604" style="stroke: #000000; stroke-width: 0.8"/>
      </g>
     </g>
     <g id="text_16">
      <text style="font-size: 9px; font-family: 'Noto Serif SC', 'Times New Roman', 'Times', 'DejaVu Serif', serif; text-anchor: end" x="27.895156" y="45.399604" transform="rotate(-0 27.895156 45.399604)">60</text>
     </g>
    </g>
    <g id="ytick_8">
     <g id="line2d_31">
      <path d="M 34.895156 15.433003 
L 371.99952 15.433003 
" clip-path="url(#p6a2713626e)" style="fill: none; stroke: #b0b0b0; stroke-opacity: 0.3; stroke-width: 0.5; stroke-linecap: square"/>
     </g>
     <g id="line2d_32">
      <g>
       <use xlink:href="#m71df3f87c2" x="34.895156" y="15.433003" style="stroke: #000000; stroke-width: 0.8"/>
      </g>
     </g>
     <g id="text_17">
      <text style="font-size: 9px; font-family: 'Noto Serif SC', 'Times New Roman', 'Times', 'DejaVu Serif', serif; text-anchor: end" x="27.895156" y="19.393003" transform="rotate(-0 27.895156 19.393003)">70</text>
     </g>
    </g>
    <g id="text_18">
     <text style="font-size: 10px; font-family: 'Noto Serif SC', 'Times New Roman', 'Times', 'DejaVu Serif', serif; text-anchor: middle" x="12.4" y="100.539604" transform="rotate(-90 12.4 100.539604)">区间数 / 个</text>
    </g>
   </g>
   <g id="patch_51">
    <path d="M 34.895156 197.479207 
L 34.895156 3.6 
" style="fill: none; stroke: #000000; stroke-width: 0.8; stroke-linejoin: miter; stroke-linecap: square"/>
   </g>
   <g id="patch_52">
    <path d="M 34.895156 197.479207 
L 371.99952 197.479207 
" style="fill: none; stroke: #000000; stroke-width: 0.8; stroke-linejoin: miter; stroke-linecap: square"/>
   </g>
   <g id="legend_1">
    <g id="patch_53">
     <path d="M 294.39952 17.84 
L 310.39952 17.84 
L 310.39952 12.24 
L 294.39952 12.24 
z
" style="fill: #0072b2; opacity: 0.75"/>
    </g>
    <g id="text_19">
     <text style="font-size: 8px; font-family: 'Noto Serif SC', 'Times New Roman', 'Times', 'DejaVu Serif', serif; text-anchor: start" x="316.79952" y="17.84" transform="rotate(-0 316.79952 17.84)">小区负载</text>
    </g>
    <g id="patch_54">
     <path d="M 294.39952 29.84 
L 310.39952 29.84 
L 310.39952 24.24 
L 294.39952 24.24 
z
" style="fill: #e69f00; opacity: 0.65"/>
    </g>
    <g id="text_20">
     <text style="font-size: 8px; font-family: 'Noto Serif SC', 'Times New Roman', 'Times', 'DejaVu Serif', serif; text-anchor: start" x="316.79952" y="29.84" transform="rotate(-0 316.79952 29.84)">光伏预测功率</text>
    </g>
   </g>
  </g>
 </g>
 <defs>
  <clipPath id="p6a2713626e">
   <rect x="34.895156" y="3.6" width="337.104364" height="193.879207"/>
  </clipPath>
 </defs>
</svg>
